# Testfil til Indretning: sidebord i millimeter
mtllib sidebord.mtl
o Bordplade
v -250 510 -250
v 250 510 -250
v 250 530 -250
v -250 530 -250
v -250 510 250
v 250 510 250
v 250 530 250
v -250 530 250
usemtl Bordplade
f 1 4 3 2
f 5 6 7 8
f 1 2 6 5
f 3 4 8 7
f 2 3 7 6
f 1 5 8 4
o Ben
v -225 0 -225
v -195 0 -225
v -195 510 -225
v -225 510 -225
v -225 0 -195
v -195 0 -195
v -195 510 -195
v -225 510 -195
v -225 0 195
v -195 0 195
v -195 510 195
v -225 510 195
v -225 0 225
v -195 0 225
v -195 510 225
v -225 510 225
v 195 0 -225
v 225 0 -225
v 225 510 -225
v 195 510 -225
v 195 0 -195
v 225 0 -195
v 225 510 -195
v 195 510 -195
v 195 0 195
v 225 0 195
v 225 510 195
v 195 510 195
v 195 0 225
v 225 0 225
v 225 510 225
v 195 510 225
v -210 120 -8
v 210 120 -8
v 210 140 -8
v -210 140 -8
v -210 120 8
v 210 120 8
v 210 140 8
v -210 140 8
usemtl Ben
f 9 12 11 10
f 13 14 15 16
f 9 10 14 13
f 11 12 16 15
f 10 11 15 14
f 9 13 16 12
f 17 20 19 18
f 21 22 23 24
f 17 18 22 21
f 19 20 24 23
f 18 19 23 22
f 17 21 24 20
f 25 28 27 26
f 29 30 31 32
f 25 26 30 29
f 27 28 32 31
f 26 27 31 30
f 25 29 32 28
f 33 36 35 34
f 37 38 39 40
f 33 34 38 37
f 35 36 40 39
f 34 35 39 38
f 33 37 40 36
f 41 44 43 42
f 45 46 47 48
f 41 42 46 45
f 43 44 48 47
f 42 43 47 46
f 41 45 48 44
